<svg xmlns="http://www.w3.org/2000/svg" viewBox="0 0 544.54 305.72"><defs><style>.cls-1{fill:#1d1d1b;}</style></defs><g id="Layer_2" data-name="Layer 2"><g id="Layer_1-2" data-name="Layer 1"><path class="cls-1" d="M426.59,0c64,0,118,21.71,118,117.36v181.9l-56.92-23.47V260c-10.56,18.77-31.1,45.77-73.93,45.77-85.68,0-113.26-33.45-113.26-78.63,0-96.24,103.87-112.67,187.19-142.59,0-39.9-20.54-75.7-61-75.7C266.4,8.8,301,305.13,144.94,305.13,41.66,305.13,0,240.58,0,149.63,0,64.55,47.53,0,144.94,0c62.2,0,108,34,108,84.5H196c0-28.17-8.22-75.7-50.47-75.7C83.91,8.8,56.33,81,56.33,149.63c0,74.52,21.71,146.7,89.19,146.7C294,296.33,256.43,0,426.59,0Zm61,93.89c-76.87,22.29-129.09,65.72-129.09,129.68,0,22.29,11.15,73.34,55.74,73.34,47.53,0,64.55-39.31,73.35-54Z"/></g></g></svg>