<svg xmlns="http://www.w3.org/2000/svg" viewBox="0 0 342.95 192.54"><defs><style>.cls-1{fill:#fff;}</style></defs><g id="Layer_2" data-name="Layer 2"><g id="Layer_1-2" data-name="Layer 1"><path class="cls-1" d="M268.67,0C309,0,343,13.67,343,73.91V188.47L307.1,173.69v-10c-6.65,11.83-19.59,28.83-46.56,28.83-54,0-71.33-21.07-71.33-49.52,0-60.61,65.41-71,117.89-89.8,0-25.13-12.93-47.68-38.43-47.68-100.89,0-79.09,186.63-177.39,186.63C26.24,192.17,0,151.52,0,94.24,0,40.65,29.93,0,91.28,0c39.17,0,68,21.43,68,53.22H123.43c0-17.74-5.17-47.68-31.78-47.68C52.84,5.54,35.47,51,35.47,94.24c0,46.93,13.68,92.39,56.18,92.39C185.15,186.63,161.5,0,268.67,0ZM307.1,59.13c-48.41,14-81.3,41.39-81.3,81.67,0,14,7,46.2,35.11,46.2,29.93,0,40.65-24.76,46.19-34Z"/></g></g></svg>