<svg xmlns="http://www.w3.org/2000/svg" viewBox="0 0 234.29 42.4"><defs><style>.cls-1{fill:#1d1d1b;}</style></defs><g id="Layer_2" data-name="Layer 2"><g id="Layer_1-2" data-name="Layer 1"><path class="cls-1" d="M40,13.75c6,0,11.05,2,11.05,11v17l-5.33-2.2V38.11a7.62,7.62,0,0,1-6.93,4.29c-8,0-10.61-3.14-10.61-7.37,0-9,9.73-10.56,17.54-13.36,0-3.74-1.93-7.1-5.72-7.1-15,0-11.77,27.77-26.4,27.77C3.9,42.34,0,36.29,0,27.77c0-8,4.45-14,13.58-14,5.83,0,10.12,3.19,10.12,7.92H18.37c0-2.64-.77-7.1-4.73-7.1-5.78,0-8.36,6.77-8.36,13.2,0,7,2,13.75,8.36,13.75C27.55,41.52,24,13.75,40,13.75Zm5.72,8.8c-7.21,2.09-12.1,6.16-12.1,12.15,0,2.09,1,6.87,5.22,6.87,4.46,0,6-3.68,6.88-5.06Z"/><path class="cls-1" d="M55.44,17.1l5.33-2.75v9.74c1.82-4.95,6.49-9.79,12.1-9.79v5.28c-8.41,0-12.1,3.08-12.1,8.85V41.79H55.44Z"/><path class="cls-1" d="M77.27,14.3,85,7.59V14.3h6.82v.82H85V37.23c0,3.57-.11,4.23,1,4.23,2.53,0,3.85-4.5,4.07-6.43l.83.11c-.39,3.19-2.09,7.2-5.34,7.2-4.23,0-5.94-.55-5.94-5.11V15.12H77.27Z"/><path class="cls-1" d="M99.33,36.35a2.79,2.79,0,0,1,3,3,3,3,0,1,1-3-3Z"/><path class="cls-1" d="M118.58,14.57c-6.82,0-5.89,5.83-5.89,7.37H107.3c0-3,2.64-8.19,11.28-8.19,6,0,11,2,11,11v17l-5.34-2.2V38.11a7.59,7.59,0,0,1-6.92,4.29c-8,0-10.62-3.14-10.62-7.37,0-9,9.74-10.56,17.54-13.31C124.29,17.93,122.37,14.57,118.58,14.57Zm5.71,8c-7.2,2.09-12.09,6.16-12.09,12.15,0,2.09,1,6.87,5.22,6.87,4.46,0,6-3.68,6.87-5.06Z"/><path class="cls-1" d="M132.38,14.3h3V8.63c0-4.89,2.31-8.63,7.54-8.63a7.58,7.58,0,0,1,8,7.64h-5.39c0-1.54.39-6.82-2.63-6.82-2.26,0-2.2,4.29-2.2,7.81V14.3H147v.82h-6.27V41.79h-5.34V15.12h-3Z"/><path class="cls-1" d="M151,17.1l5.34-2.75v9.74c1.81-4.95,6.49-9.79,12.1-9.79v5.28c-8.42,0-12.1,3.08-12.1,8.85V41.79H151Z"/><path class="cls-1" d="M178.75,7a5.16,5.16,0,0,0-3,3.69,5.16,5.16,0,0,0-3-3.69c1.65-.82,2.31-1.65,3-3.68A5,5,0,0,0,178.75,7Zm-5.61,9.52,5.33-2.2V41.79h-5.33Z"/><path class="cls-1" d="M223.24,13.75c6,0,11,2,11,11v17L229,39.59V38.11A7.62,7.62,0,0,1,222,42.4c-8,0-10.62-3.14-10.62-7.37,0-9,9.74-10.56,17.55-13.36,0-3.74-1.93-7.1-5.72-7.1-15,0-11.77,27.77-26.4,27.77-9.68,0-13.58-6.05-13.58-14.57,0-8,4.45-14,13.58-14,5.83,0,10.12,3.19,10.12,7.92h-5.34c0-2.64-.77-7.1-4.72-7.1-5.78,0-8.36,6.77-8.36,13.2,0,7,2,13.75,8.36,13.75C210.81,41.52,207.29,13.75,223.24,13.75Zm5.72,8.8c-7.21,2.09-12.1,6.16-12.1,12.15,0,2.09,1,6.87,5.22,6.87,4.46,0,6-3.68,6.88-5.06Z"/></g></g></svg>